<?xml version="1.0" standalone="no"?>
<!DOCTYPE svg PUBLIC "-//W3C//DTD SVG 20010904//EN"
 "http://www.w3.org/TR/2001/REC-SVG-20010904/DTD/svg10.dtd">
<svg version="1.0" xmlns="http://www.w3.org/2000/svg"
 width="1280.000000pt" height="1280.000000pt" viewBox="0 0 1280.000000 1280.000000"
 preserveAspectRatio="xMidYMid meet">
<metadata>
Created by potrace 1.15, written by Peter Selinger 2001-2017
</metadata>
<g transform="translate(0.000000,1280.000000) scale(0.100000,-0.100000)"
fill="#000000" stroke="none">
<path d="M6095 12794 c-27 -2 -115 -8 -195 -14 -1158 -85 -2296 -503 -3250
-1194 -561 -407 -1060 -909 -1465 -1477 -1290 -1808 -1545 -4169 -673 -6221
75 -176 232 -491 328 -658 755 -1314 1927 -2308 3343 -2834 923 -343 1937
-466 2927 -356 1302 146 2508 677 3505 1544 248 216 581 565 801 842 1539
1932 1819 4616 713 6826 -783 1565 -2160 2738 -3824 3259 -428 134 -858 219
-1340 265 -150 14 -756 27 -870 18z m811 -1218 c479 -51 915 -153 1334 -313
1808 -691 3086 -2318 3320 -4227 228 -1860 -553 -3681 -2064 -4810 -609 -455
-1331 -776 -2081 -925 -370 -74 -595 -95 -1015 -95 -428 0 -651 22 -1035 99
-2182 441 -3854 2248 -4125 4459 -292 2377 1075 4641 3320 5499 497 190 953
286 1575 331 110 8 639 -4 771 -18z"/>
<path d="M5955 11475 c-627 -58 -1200 -215 -1760 -484 -1033 -497 -1882 -1344
-2380 -2376 -282 -584 -445 -1188 -495 -1834 -13 -173 -13 -589 0 -762 59
-757 286 -1499 660 -2149 316 -550 765 -1070 1265 -1466 795 -630 1766 -1008
2785 -1084 174 -13 566 -13 740 0 927 69 1816 388 2565 920 702 499 1258 1151
1635 1915 269 547 429 1103 500 1740 18 159 24 681 11 867 -125 1704 -1080
3216 -2571 4069 -631 361 -1332 578 -2077 644 -205 18 -679 18 -878 0z"/>
</g>
</svg>
