<?xml version="1.0" encoding="UTF-8" standalone="no"?>
<!-- Created with Inkscape (http://www.inkscape.org/) -->

<svg
   width="64pt"
   height="64pt"
   viewBox="0 0 22.577778 22.577778"
   version="1.1"
   id="svg831"
   inkscape:version="1.1.1 (3bf5ae0d25, 2021-09-20)"
   sodipodi:docname="Ex.svg"
   inkscape:export-filename="C:\Users\User\Desktop\CARLOS PROJECT\4. APRIL 1\Done\1 - Tomato.png"
   inkscape:export-xdpi="576"
   inkscape:export-ydpi="576"
   xmlns:inkscape="http://www.inkscape.org/namespaces/inkscape"
   xmlns:sodipodi="http://sodipodi.sourceforge.net/DTD/sodipodi-0.dtd"
   xmlns="http://www.w3.org/2000/svg"
   xmlns:svg="http://www.w3.org/2000/svg"
   xmlns:rdf="http://www.w3.org/1999/02/22-rdf-syntax-ns#"
   xmlns:cc="http://creativecommons.org/ns#"
   xmlns:dc="http://purl.org/dc/elements/1.1/">
  <defs
     id="defs825">
    <pattern
       id="EMFhbasepattern"
       patternUnits="userSpaceOnUse"
       width="6"
       height="6"
       x="0"
       y="0" />
    <pattern
       id="EMFhbasepattern-9"
       patternUnits="userSpaceOnUse"
       width="6"
       height="6"
       x="0"
       y="0" />
    <pattern
       id="EMFhbasepattern-0"
       patternUnits="userSpaceOnUse"
       width="6"
       height="6"
       x="0"
       y="0" />
    <pattern
       id="EMFhbasepattern-7"
       patternUnits="userSpaceOnUse"
       width="6"
       height="6"
       x="0"
       y="0" />
    <pattern
       id="EMFhbasepattern-2"
       patternUnits="userSpaceOnUse"
       width="6"
       height="6"
       x="0"
       y="0" />
    <pattern
       id="EMFhbasepattern-98"
       patternUnits="userSpaceOnUse"
       width="6"
       height="6"
       x="0"
       y="0" />
    <pattern
       id="EMFhbasepattern-6"
       patternUnits="userSpaceOnUse"
       width="6"
       height="6"
       x="0"
       y="0" />
    <pattern
       id="EMFhbasepattern-01"
       patternUnits="userSpaceOnUse"
       width="6"
       height="6"
       x="0"
       y="0" />
    <pattern
       id="EMFhbasepattern-07"
       patternUnits="userSpaceOnUse"
       width="6"
       height="6"
       x="0"
       y="0" />
    <pattern
       id="EMFhbasepattern-8"
       patternUnits="userSpaceOnUse"
       width="6"
       height="6"
       x="0"
       y="0" />
    <pattern
       id="EMFhbasepattern-4"
       patternUnits="userSpaceOnUse"
       width="6"
       height="6"
       x="0"
       y="0" />
    <pattern
       id="EMFhbasepattern-40"
       patternUnits="userSpaceOnUse"
       width="6"
       height="6"
       x="0"
       y="0" />
    <pattern
       id="EMFhbasepattern-08"
       patternUnits="userSpaceOnUse"
       width="6"
       height="6"
       x="0"
       y="0" />
    <pattern
       id="EMFhbasepattern-04"
       patternUnits="userSpaceOnUse"
       width="6"
       height="6"
       x="0"
       y="0" />
    <pattern
       id="EMFhbasepattern-014"
       patternUnits="userSpaceOnUse"
       width="6"
       height="6"
       x="0"
       y="0" />
    <pattern
       id="EMFhbasepattern-27"
       patternUnits="userSpaceOnUse"
       width="6"
       height="6"
       x="0"
       y="0" />
    <pattern
       id="EMFhbasepattern-09"
       patternUnits="userSpaceOnUse"
       width="6"
       height="6"
       x="0"
       y="0" />
    <pattern
       id="EMFhbasepattern-5"
       patternUnits="userSpaceOnUse"
       width="6"
       height="6"
       x="0"
       y="0" />
    <pattern
       id="EMFhbasepattern-018"
       patternUnits="userSpaceOnUse"
       width="6"
       height="6"
       x="0"
       y="0" />
  </defs>
  <sodipodi:namedview
     id="base"
     pagecolor="#ffffff"
     bordercolor="#666666"
     borderopacity="1.0"
     inkscape:pageopacity="0.0"
     inkscape:pageshadow="2"
     inkscape:zoom="6.4882571"
     inkscape:cx="17.261955"
     inkscape:cy="42.615451"
     inkscape:document-units="pt"
     inkscape:current-layer="layer1"
     showgrid="false"
     units="pt"
     inkscape:window-width="1920"
     inkscape:window-height="1001"
     inkscape:window-x="-9"
     inkscape:window-y="-9"
     inkscape:window-maximized="1"
     inkscape:pagecheckerboard="true"
     inkscape:showpageshadow="false"
     inkscape:object-paths="true"
     inkscape:snap-intersection-paths="true"
     inkscape:snap-smooth-nodes="true"
     inkscape:snap-midpoints="true"
     showguides="true"
     inkscape:snap-bbox="true"
     inkscape:bbox-nodes="true"
     inkscape:snap-nodes="false"
     inkscape:snap-global="true"
     inkscape:lockguides="true">
    <inkscape:grid
       type="xygrid"
       id="grid1378" />
    <sodipodi:guide
       position="0.97013831,21.607643"
       orientation="78.000048,0"
       id="guide1380"
       inkscape:locked="true" />
    <sodipodi:guide
       position="0.97013831,0.97013129"
       orientation="0,78.000005"
       id="guide1382"
       inkscape:locked="true" />
    <sodipodi:guide
       position="21.607639,0.97013129"
       orientation="-78.000048,0"
       id="guide1384"
       inkscape:locked="true" />
    <sodipodi:guide
       position="21.607639,21.607643"
       orientation="0,-78.000005"
       id="guide1386"
       inkscape:locked="true" />
  </sodipodi:namedview>
  <metadata
     id="metadata828">
    <rdf:RDF>
      <cc:Work
         rdf:about="">
        <dc:format>image/svg+xml</dc:format>
        <dc:type
           rdf:resource="http://purl.org/dc/dcmitype/StillImage" />
      </cc:Work>
    </rdf:RDF>
  </metadata>
  <g
     inkscape:label="Icon"
     inkscape:groupmode="layer"
     id="layer1"
     transform="translate(0,-274.42223)">
    <g
       id="g2345"
       style="display:inline;stroke-width:0.795275"
       transform="matrix(1.2574261,0,0,1.2574261,38.998305,-38.767198)">
      <g
         id="g4361"
         style="display:inline;stroke-width:0.795275">
        <path
           style="color:#000000;fill:#74a838;stroke-width:0.795275;stroke-linecap:round;stroke-linejoin:round;-inkscape-stroke:none"
           d="m -19.312543,253.26369 -2.255859,-2.27734 c -0.005,-0.005 -0.01024,-0.009 -0.01563,-0.0137 -2.430287,-2.04156 -6.297732,-0.81453 -6.814405,1.95118 l 2.205548,1.57116 z"
           id="path22058"
           sodipodi:nodetypes="cccccc" />
        <path
           id="path54333"
           style="fill:#6a9834;fill-opacity:1;stroke-width:3.00577;stroke-linecap:round;stroke-linejoin:round"
           d="m -92.775581,-88.324246 12.94336,-7.541015 -0.0625,-0.0625 c -3.430066,-3.643119 -7.581004,-6.757499 -12.578125,-5.787109 -3.214084,0.65635 -4.36455,1.752696 -7.640624,0.95117 -2.52792,-1.11315 -3.58889,-4.03702 -5.36719,-5.69141 -0.0973,-0.0887 -0.1992,-0.16996 -0.30664,-0.24609 l 1.9e-4,3e-5 c -0.72885,1.23612 -1.26072,2.61239 -1.54492,4.11328 z"
           transform="matrix(0.26458334,0,0,0.26458334,0,280.06666)"
           sodipodi:nodetypes="cccccccccc" />
        <path
           id="path64968"
           style="fill:#6a9834;fill-opacity:1;stroke-width:3.00577;stroke-linecap:round;stroke-linejoin:round"
           d="m -81.578116,-109.96096 c -0.83468,-0.71473 -1.717701,-1.32563 -2.634766,-1.83789 -7.568636,1.76504 -11.998119,4.34613 -12.64454,12.814475 l 23.865246,-2.318355 z"
           transform="matrix(0.26458334,0,0,0.26458334,0,280.06666)"
           sodipodi:nodetypes="ccccc" />
        <path
           style="color:#000000;fill:#74a838;stroke-width:0.795275;stroke-linecap:round;stroke-linejoin:round;-inkscape-stroke:none"
           d="m -19.49046,250.06581 c -0.97857,1.28174 -2.183959,1.53939 -3.976337,1.2936 -0.885031,0.38259 -1.577882,1.13973 -1.658203,2.54688 -4.3e-5,7.5e-4 4.3e-5,10e-4 0,0.002 l -0.3125,2.84571 c -0.01719,0.15905 0.109601,0.29686 0.269531,0.29296 l 7.882813,-0.2246 c 0.154558,-0.005 0.271714,-0.14131 0.253906,-0.29493 l -0.425781,-3.73047 c -0.0011,-0.0125 -0.0031,-0.0249 -0.0059,-0.0371 -0.133723,-0.51638 -0.235656,-1.11933 -0.419921,-1.65821 -0.412087,-0.82206 -0.862571,-1.41994 -1.607608,-1.03584 z"
           id="path21866"
           sodipodi:nodetypes="ccsccccccccc" />
        <path
           id="path54454"
           style="fill:#6a9834;fill-opacity:1;stroke-width:3.00577;stroke-linecap:round;stroke-linejoin:round"
           d="m -90.412109,-101.92578 c -0.735185,8.8e-4 -1.428393,0.0818 -2.060547,0.21094 -0.849923,0.17356 -1.552663,0.37638 -2.191406,0.56836 -0.149172,0.70248 -0.250423,1.459632 -0.296876,2.273433 -1.62e-4,0.0028 1.63e-4,0.0021 0,0.0059 l -1.18164,10.75586 a 1.0001006,1.0001006 0 0 0 1.019531,1.107422 l 23.414063,-0.666016 -8.185547,-8.257812 c -2.409362,-2.594873 -4.473308,-4.253127 -6.591797,-5.181647 -1.360153,-0.59612 -2.700473,-0.81786 -3.925781,-0.8164 z"
           transform="matrix(0.26458334,0,0,0.26458334,0,280.06666)" />
        <path
           id="path45963"
           style="fill:#6a9834;fill-opacity:1;stroke-width:0.795275;stroke-linecap:round;stroke-linejoin:round"
           d="m -17.463016,252.75981 c -0.08967,-0.34626 -0.165479,-0.73132 -0.260966,-1.11001 l -1e-6,-1e-5 c -0.559357,0.36084 -0.917415,0.87022 -1.225249,1.27796 -0.366794,0.48584 -0.69983,0.87684 -0.968933,1.02732 -0.60766,0.33981 -1.877931,0.51974 -3.095418,0.91985 -0.611465,0.20095 -1.24063,0.48204 -1.76165,0.97875 -0.269052,0.25649 -0.494088,0.57068 -0.661458,0.93224 0.002,0.14633 0.12239,0.26326 0.268717,0.26097 l 7.882724,-0.22428 z"
           sodipodi:nodetypes="cscscsscccc" />
        <path
           style="color:#000000;fill:#9ccc65;stroke-width:0.795275;stroke-linecap:round;stroke-linejoin:round;-inkscape-stroke:none"
           d="m -28.708984,252.38476 c -1.219365,1.4916 -0.928174,3.74057 -0.02539,5.31835 0.01139,0.0192 0.02518,0.0369 0.04102,0.0527 l 4.27539,4.39062 c 0.100772,0.10353 0.265954,0.10709 0.371094,0.008 l 4.683594,-4.41211 c 0.108142,-0.10218 0.110808,-0.27341 0.0059,-0.37891 l -2.226562,-2.24805 c -0.610244,-0.65885 -1.098628,-1.03596 -1.546875,-1.23242 -0.448248,-0.19646 -0.85442,-0.1943 -1.212891,-0.12109 -0.716942,0.14641 -1.248246,0.50121 -2.291016,0.24609 -0.40097,-0.0981 -0.651667,-0.33707 -0.896484,-0.65039 -0.244817,-0.31332 -0.461046,-0.69549 -0.794922,-1 -0.136637,-0.11815 -0.307063,-0.0623 -0.382858,0.0272 z"
           id="path21661"
           sodipodi:nodetypes="ccccccccscsscc" />
        <path
           id="path46084"
           style="fill:#7dc23d;fill-opacity:1;stroke-width:3.00577;stroke-linecap:round;stroke-linejoin:round"
           d="m -81.576177,-94.304688 c -0.675215,-0.728996 -1.310044,-1.363862 -1.914062,-1.919921 h 5e-6 c -1.147584,0.299687 -2.324393,0.628581 -3.490235,1.011718 -2.311049,0.759496 -4.688993,1.82189 -6.658203,3.699219 -1.976054,1.88383 -3.328642,4.586918 -3.662109,7.839844 l 6.414059,15.974601 z"
           transform="matrix(0.26458334,0,0,0.26458334,0,280.06666)"
           sodipodi:nodetypes="cssssccc" />
        <path
           id="path22449"
           style="color:#000000;fill:#7dc23d;fill-opacity:1;stroke-width:3.00577;stroke-linecap:round;stroke-linejoin:round;-inkscape-stroke:none"
           d="m -90.886719,-67.699219 12.183594,-11.476562 c -0.995404,-1.673957 -2.344934,-3.517677 -4.580078,-4.720703 -5.561771,-2.993537 -10.901359,-2.304899 -15.183594,-2.289063 -7.635283,-0.491373 -8.357693,-1.807472 -12.660153,-5.001953 0.49575,2.370753 1.37932,4.6611 2.52539,6.664062 z"
           transform="matrix(0.26458334,0,0,0.26458334,0,280.06666)"
           sodipodi:nodetypes="ccscccc" />
        <path
           style="color:#000000;fill:#74a838;stroke-width:0.795275;stroke-linecap:round;stroke-linejoin:round;-inkscape-stroke:none"
           d="m -17.125,252.03711 c -0.572517,0.2654 -0.951796,0.78141 -1.320312,1.26953 -0.368517,0.48812 -0.725399,0.95392 -1.164063,1.19922 -0.803653,0.44941 -2.075683,0.59695 -3.207031,0.96875 -0.565675,0.1859 -1.101816,0.43399 -1.523438,0.83594 -0.42064,0.40101 -0.712087,0.96128 -0.783203,1.69922 -1.66e-4,0.002 -0.0018,0.002 -0.002,0.004 l -0.492187,4.00586 c -0.01594,0.12355 0.05645,0.24149 0.173828,0.2832 l 6.396484,2.25196 c 0.1309,0.0457 0.274917,-0.0173 0.330078,-0.14453 l 3.347656,-7.63672 c 0.0037,-0.008 0.007,-0.0168 0.0098,-0.0254 0.169963,-0.5179 0.33223,-1.27946 0.181641,-2.125 -0.150589,-0.84555 -0.625388,-1.7669 -1.675782,-2.55664 -0.08838,-0.0683 -0.167942,-0.0754 -0.271471,-0.0294 z"
           id="path21460"
           sodipodi:nodetypes="cscssccccccccscc" />
        <path
           id="path38747"
           style="fill:#6a9834;fill-opacity:1;stroke-width:0.795275;stroke-linecap:round;stroke-linejoin:round"
           d="m -15.141195,255.74101 c -1.456769,0.34426 -3.272606,0.89143 -4.237468,2.47944 -0.222549,0.36629 -0.396675,0.76414 -0.562756,1.10381 -0.166082,0.33966 -0.340228,0.61908 -0.427881,0.70486 -0.01942,0.019 -0.229319,0.14822 -0.50953,0.26407 -0.283416,0.11719 -0.671883,0.25597 -1.049031,0.53278 -0.795608,0.58395 -1.098466,1.46282 -1.181324,2.29857 l 4.062285,1.4304 a 0.26460996,0.26460996 0 0 0 0.330213,-0.14469 l 3.347599,-7.63674 a 0.26460996,0.26460996 0 0 0 0.0098,-0.0253 c 0.09021,-0.2749 0.177831,-0.61887 0.218075,-1.00718 z" />
        <path
           id="path22328"
           style="fill:#6a9834;fill-opacity:1;stroke-width:3.00577;stroke-linecap:round;stroke-linejoin:round"
           d="m -75.451146,-74.019467 c -0.888049,-0.858142 -1.72447,-2.447554 -2.759766,-4.302735 -1.041596,-1.866519 -2.449084,-4.162338 -5.072265,-5.574218 -3.556518,-1.696255 -5.630242,-2.359234 -11.019557,-2.365252 -0.324831,0.871152 -0.54804,1.834435 -0.650391,2.896485 -6.27e-4,0.0076 -0.0071,0.0081 -0.0078,0.01563 l -1.859374,15.140625 z"
           transform="matrix(0.26458334,0,0,0.26458334,0,280.06666)"
           sodipodi:nodetypes="cccccccc" />
        <path
           style="color:#000000;fill:#74a838;stroke-width:0.795275;stroke-linecap:round;stroke-linejoin:round;-inkscape-stroke:none"
           d="m -29.978516,256.5957 c -0.477282,1.74315 -0.08295,4.12961 1.203125,6.11133 1.286071,1.98172 3.497356,3.54883 6.619141,3.54883 0.113906,5.8e-4 0.215399,-0.0718 0.251953,-0.17969 l 1.638672,-4.9375 c 0.03218,-0.0963 0.0064,-0.20259 -0.06641,-0.27344 -0.33189,-0.32072 -0.560785,-0.78615 -0.826172,-1.26171 -0.265387,-0.47557 -0.577526,-0.96886 -1.128906,-1.26563 -1.316668,-0.70868 -2.583645,-0.54734 -3.763672,-0.54297 -1.180028,0.004 -2.27436,-0.11446 -3.486328,-1.3164 -0.15202,-0.15393 -0.382864,-0.12072 -0.441403,0.11718 z"
           id="path21255"
           sodipodi:nodetypes="csccccscccc" />
        <path
           id="path42750"
           style="color:#000000;fill:#6a9834;fill-opacity:1;stroke-width:0.795275;stroke-linecap:round;stroke-linejoin:round;-inkscape-stroke:none"
           d="m -20.332092,260.8651 c -0.175263,-0.16936 -0.32156,-0.37953 -0.45992,-0.60978 l -1e-6,1.5e-4 c -1.828949,0.59575 -2.305559,1.88051 -2.343013,3.30727 -0.01753,0.9093 0.155418,1.81628 0.269235,2.66533 0.230972,0.0183 0.467604,0.0274 0.709518,0.0274 z"
           sodipodi:nodetypes="ccccccc" />
        <path
           style="color:#000000;fill:#9ccc65;stroke-width:0.795275;stroke-linecap:round;stroke-linejoin:round;-inkscape-stroke:none"
           d="m -14.269531,256.13477 c -1.530668,0.35381 -3.646149,0.79496 -4.613281,2.38671 -0.388494,0.63941 -0.687223,1.53742 -1.080079,1.92188 -0.497306,0.39113 -1.149977,0.5108 -1.621093,0.84961 -0.741481,0.54422 -0.956727,1.416 -0.970703,2.2793 -0.01398,0.86329 0.159567,1.7577 0.234375,2.44921 0.01531,0.13313 0.127717,0.23379 0.261718,0.23438 2.017441,0 4.189327,-0.63373 5.791016,-2.20117 1.601689,-1.56744 2.605088,-4.06055 2.320312,-7.6836 -0.01322,-0.16038 -0.165332,-0.27193 -0.322265,-0.23632 z"
           id="path21063"
           sodipodi:nodetypes="csccsccscc" />
      </g>
      <path
         id="path7743"
         style="color:#000000;display:inline;fill:#000000;stroke-width:0.795275;stroke-linecap:round;stroke-linejoin:round;-inkscape-stroke:none"
         d="m -21.862749,266.25407 c 1.961258,-0.0399 4.045002,-0.68249 5.595008,-2.19935 1.601689,-1.56744 2.605048,-4.06072 2.320272,-7.68377 -0.01333,-0.16015 -0.165182,-0.27154 -0.321945,-0.23616 -0.307892,0.0712 -0.640225,0.14617 -0.981335,0.23306 0.117796,-0.48089 0.18998,-1.087 0.07286,-1.7446 -0.150589,-0.84555 -0.625473,-1.76721 -1.675867,-2.55694 -0.07811,-0.0591 -0.182482,-0.0703 -0.271301,-0.0289 -0.162047,0.0751 -0.308162,0.17061 -0.443384,0.27956 -0.09054,-0.40067 -0.180586,-0.82469 -0.314193,-1.21543 -0.184266,-0.53887 -0.463867,-1.04338 -0.837627,-1.18746 -0.489991,-0.18468 -0.823385,0.021 -1.174136,0.28726 -0.498309,0.50866 -1.188397,0.57956 -1.789039,0.68884 -0.573532,-0.46217 -1.226848,-0.74688 -1.896525,-0.87436 -1.951724,-0.37149 -4.040086,0.59365 -4.681886,2.40296 -0.13282,-0.19027 -0.323458,-0.18421 -0.447,-0.0341 -1.009663,1.23508 -0.983342,2.98931 -0.432014,4.45192 -0.13089,-0.10737 -0.262888,-0.22575 -0.396359,-0.35811 -0.06641,-0.0663 -0.162949,-0.0924 -0.25373,-0.0687 v 5.2e-4 c -0.0911,0.024 -0.162545,0.0947 -0.187587,0.18552 -0.477282,1.74315 -0.08305,4.12954 1.203028,6.11126 1.286071,1.98172 3.497449,3.54862 6.619234,3.54862 z m -0.340547,-11.74813 c 0.202356,-0.34201 0.381116,-0.49717 0.543119,-0.58033 0.188588,-0.0968 0.385399,-0.10452 0.644405,-0.13435 0.259006,-0.0298 0.580349,-0.0959 0.88315,-0.34417 0.302802,-0.24822 0.580846,-0.65518 0.862997,-1.34359 0.05439,-0.13484 -0.01023,-0.28832 -0.144694,-0.34365 -0.142744,-0.0594 -0.291395,-0.002 -0.345199,0.14263 -0.26323,0.64225 -0.505122,0.96925 -0.709,1.13637 -0.203878,0.16713 -0.376971,0.20029 -0.607715,0.22686 -0.411272,0.0406 -0.663317,0.11135 -0.974101,0.27802 0.0848,-0.43006 0.2029,-0.82693 0.45837,-1.07694 0.103766,-0.10206 0.105614,-0.26877 0.0041,-0.37311 -0.126168,-0.11719 -0.26935,-0.10067 -0.375171,-0.006 -0.576489,0.56417 -0.637111,1.41283 -0.731221,2.03656 -0.658553,-0.33848 -1.092867,-0.50129 -1.892908,-0.30437 0.09577,-1.17354 0.591055,-1.6555 1.329118,-1.97456 0.762558,-0.32964 1.802251,-0.41783 2.808614,-0.66404 0.366356,-0.0896 0.632341,-0.36343 0.886768,-0.56844 0.615699,-0.5906 0.967922,0.0615 1.177704,0.66042 0.150031,0.43876 0.250491,0.97178 0.375171,1.47898 -0.519964,0.58601 -0.71404,1.14239 -1.599386,1.75339 -0.513989,0.28742 -1.220193,0.4513 -1.95802,0.62941 z m -2.176095,-4.03747 c 0.676783,0.006 1.365438,0.18315 1.980241,0.56223 -0.370495,0.0823 -0.731506,0.18337 -1.067635,0.32867 -0.864747,0.37381 -1.545368,1.1051 -1.651062,2.45101 -0.247851,-0.19287 -0.380691,-0.50243 -0.425297,-0.8692 -0.05825,-0.47894 0.0679,-1.02788 0.287321,-1.35702 0.0816,-0.12141 0.0492,-0.28601 -0.07235,-0.36742 -0.159374,-0.0889 -0.287768,-0.0524 -0.366903,0.0744 -0.309741,0.46461 -0.447148,1.1058 -0.373104,1.71462 0.04752,0.39076 0.195633,0.78034 0.464572,1.07022 -0.780563,0.0801 -1.471851,-0.14155 -1.927532,-0.7183 -0.109313,-0.1399 -0.213596,-0.29372 -0.324528,-0.44803 0.349806,-1.51201 1.880825,-2.45441 3.476274,-2.4412 z m 7.349939,2.17402 c 0.819288,0.67693 1.209726,1.39605 1.330152,2.07223 0.124552,0.69935 -0.0013,1.35371 -0.147278,1.81694 -1.179601,0.35245 -2.375513,0.90302 -3.035991,1.99006 -0.388494,0.63941 -0.687698,1.53739 -1.080554,1.92185 -0.109607,0.10726 -0.282092,0.20236 -0.488342,0.29559 -0.270144,-0.31055 -0.47451,-0.71936 -0.706934,-1.13585 -0.09479,-0.16986 -0.195606,-0.34181 -0.233474,-0.45894 -0.03787,-0.11712 0.01002,-0.14986 0.07948,-0.1834 1.094296,-0.14265 1.517853,-0.31528 1.962671,-0.73432 0.103765,-0.10206 0.105611,-0.26877 0.0041,-0.3731 -0.119256,-0.11166 -0.260749,-0.11549 -0.375171,-0.004 -0.356986,0.34935 -0.762664,0.40422 -1.187525,0.47077 -0.138962,0.0218 -0.279238,0.0425 -0.417545,0.0822 0.09139,-0.2443 0.220869,-0.44724 0.378788,-0.62684 0.301697,-0.3431 0.721767,-0.59777 1.200961,-0.82424 0.958389,-0.45294 2.146256,-0.76665 2.918168,-1.62522 0.09739,-0.10853 0.0886,-0.2754 -0.01964,-0.3731 -0.131831,-0.1092 -0.276035,-0.0845 -0.373105,0.0196 -0.627341,0.69776 -1.733908,1.01912 -2.751769,1.50017 -0.563715,0.25887 -1.050134,0.5942 -1.394231,0.9772 -0.06489,-0.36178 -0.223594,-0.6968 -0.506429,-0.97358 -0.149467,-0.11175 -0.271005,-0.0837 -0.373104,0.004 -0.102859,0.10459 -0.101004,0.27289 0.0041,0.37518 0.421586,0.41255 0.471135,1.01797 0.282154,1.70118 -0.738765,-0.53668 -1.793337,-0.74547 -2.597258,-0.77514 0.0934,-0.47918 0.298543,-0.8177 0.582394,-1.08831 0.336414,-0.32072 0.797818,-0.54161 1.324467,-0.71468 1.053298,-0.34616 2.341154,-0.47647 3.298506,-1.01183 1.29508,-0.8251 1.43204,-1.68918 2.322341,-2.32441 z m -9.730155,1.88103 c 1.198936,0.29333 1.935229,-0.12475 2.521293,-0.24443 0.293031,-0.0599 0.547049,-0.0639 0.894519,0.0884 0.310021,0.13588 0.695133,0.41056 1.188041,0.91468 -0.644832,0.16147 -1.341011,0.40476 -1.861902,0.68471 -0.206483,0.0982 -1.491555,-0.009 -2.13682,-0.0372 -0.697405,-0.0345 -1.255961,-0.16653 -1.61489,-0.69143 -0.09918,-0.13994 -0.253767,-0.13446 -0.367419,-0.0682 -0.119806,0.0827 -0.150286,0.24666 -0.06821,0.3669 0.459608,0.67214 1.191596,0.86551 1.912028,0.91519 -0.254318,0.11023 -0.480682,0.24165 -0.656291,0.40152 -0.10763,0.0983 -0.115486,0.26513 -0.01757,0.37311 0.0983,0.10763 0.265129,0.11549 0.373105,0.0176 0.652869,-0.42548 1.316667,-0.61026 2.046387,-0.70952 -0.26818,0.32813 -0.461706,0.74006 -0.54622,1.24282 -0.32466,0.004 -0.643935,0.0159 -0.957047,0.017 -0.770328,0.003 -1.504407,-0.0469 -2.25826,-0.41599 -0.720805,-1.30577 -0.843886,-3.04354 -0.101285,-4.28295 0.449786,0.60474 0.752819,1.1275 1.650542,1.42783 z m 10.122896,9.15396 c -1.326493,1.29813 -3.09562,1.88443 -4.819861,1.99523 0.332767,-0.69343 0.994016,-1.40875 1.766817,-2.1146 0.349153,-0.26244 0.876987,-0.45209 1.420069,-0.60513 0.640529,-0.1805 1.282792,-0.30097 1.722892,-0.5762 0.124229,-0.0776 0.161757,-0.24139 0.08372,-0.36535 -0.07753,-0.12297 -0.239754,-0.16035 -0.363285,-0.0837 -0.27851,0.17418 -0.906508,0.32484 -1.557528,0.50747 1.049144,-0.97156 2.520124,-1.89226 2.938322,-3.22254 0.04067,-0.13996 -0.03951,-0.28645 -0.179317,-0.32763 -0.140122,-0.041 -0.286971,0.0392 -0.328146,0.17931 -0.353508,0.75776 -0.78538,1.21328 -1.313098,1.71049 0.03918,-0.43502 0.0499,-0.92164 0.20929,-1.24592 0.06595,-0.13042 0.01365,-0.28961 -0.116574,-0.35539 -0.13023,-0.0658 -0.289274,-0.0142 -0.355749,0.11563 -0.411709,0.64416 -0.06164,1.65422 -0.500744,2.15956 -0.795216,0.67883 -1.653321,1.35823 -2.359546,2.02468 0.0071,-0.25841 0.01983,-0.53319 0.03772,-0.77825 0.02604,-0.16005 0.06951,-0.26472 0.160197,-0.35346 0.105139,-0.10229 0.106994,-0.27059 0.0041,-0.37518 -0.118422,-0.11186 -0.289007,-0.079 -0.373106,-0.004 -0.189596,0.18554 -0.277987,0.42288 -0.314709,0.64854 -0.07097,0.54474 0.09663,1.02626 -0.246497,1.62057 -0.301913,0.34891 -0.559832,0.70773 -0.750858,1.07952 -0.07729,-0.56508 -0.162134,-1.16308 -0.152963,-1.72961 0.01271,-0.78478 0.188642,-1.44645 0.75396,-1.86138 0.217033,-0.15929 0.511581,-0.27891 0.81442,-0.40411 0.302839,-0.12521 0.617588,-0.25337 0.863513,-0.49403 0.563966,-0.55191 0.836623,-1.4873 1.163754,-2.02572 0.746852,-1.2292 2.454327,-1.69345 3.922241,-2.0407 0.257612,1.85841 -0.562626,5.32905 -2.129069,6.92153 z m -9.412345,-5.35523 c 1.897933,0.053 3.513903,-0.0898 4.429703,1.53892 0.196731,0.35254 0.385402,0.74403 0.657325,1.09296 -0.209522,0.0899 -0.424771,0.19411 -0.622185,0.339 -0.404067,0.29657 -0.651192,0.69032 -0.7953,1.12706 -0.518192,-0.26679 -0.998877,-0.68277 -1.502751,-1.06195 -0.242055,-0.25803 -0.476582,-0.75758 -0.752408,-1.22163 -0.147408,-0.248 -0.311173,-0.48696 -0.527617,-0.67541 -0.216445,-0.18845 -0.499608,-0.32186 -0.824239,-0.31678 -0.146137,0.003 -0.262298,0.12362 -0.259416,0.26975 0.0028,0.14532 0.122349,0.26115 0.267684,0.25942 0.185979,-0.003 0.32357,0.0597 0.468706,0.18603 0.145136,0.12637 0.285011,0.32236 0.419612,0.54881 0.05771,0.0971 0.11354,0.19927 0.169499,0.30386 -0.0012,-5.3e-4 -0.0024,-10e-4 -0.0036,-0.002 -0.0012,-6.8e-4 -0.0024,-10e-4 -0.0036,-0.002 -0.533515,-0.22903 -1.046532,-0.25997 -1.502234,-0.32815 -0.455701,-0.0682 -0.847975,-0.16157 -1.231965,-0.48214 -0.1588,-0.10147 -0.292074,-0.0502 -0.373102,0.0331 -0.09405,0.11211 -0.07924,0.27928 0.03307,0.3731 0.484433,0.40443 1.00884,0.52688 1.493964,0.59945 0.485121,0.0726 0.936804,0.10507 1.370975,0.29145 0.413127,0.18503 0.825164,0.521 1.27279,0.8692 -0.993907,-0.12388 -1.66427,0.0827 -2.251025,0.33951 -0.13409,0.0591 -0.194566,0.21601 -0.134876,0.34985 0.05914,0.13409 0.216005,0.19457 0.34985,0.13488 1.290213,-0.5773 2.150811,-0.40212 3.381706,0.1633 -0.02182,0.1719 -0.03336,0.3459 -0.03617,0.51986 -0.01206,0.745 0.115167,1.51292 0.198438,2.15388 -2.838065,-0.0641 -4.79741,-1.49037 -5.975862,-3.30626 -1.119949,-1.72574 -1.432729,-3.76585 -1.142566,-5.29477 0.943544,1.03875 2.246355,1.19403 3.425629,1.19735 z"
         sodipodi:nodetypes="cscccscccscccccccccccscccscccccscccccccccccccccccccscccsccccccscsscsccccccccssccccccccccsccccccccccccccccccccccccccccccccccccccccccccccccccccccscsccssccccsccccccccccccccscsc" />
    </g>
  </g>
</svg>
